PathFileType	4	(X/Y/Z)	Kaydara																																																																																																																																																																																																																												
DataRate	CameraRate	NumFrames	NumMarkers	Units	OrigDataRate	OrigDataStartFrame	OrigNumFrames																																																																																																																																																																																																																								
60	60	4	74	mm	60	1294	294																																																																																																																																																																																																																								
Frame#	Time	N_lasi			N_rasi			N_rpsi			N_lpsi			N_fneck			N_bneck			N_fhead			N_rhead			N_lhead			N_rshld			N_relbtop			N_relbext			N_relblow			N_rwrext			N_rwrtop			N_rwrlow			N_lshld			N_lelblow			N_lelbtop			N_lwrext			N_lwrtop			N_lwrlow			N_rtopleg			N_ltopleg			N_rkneefr			N_rkneebk			N_rkneeis			N_lkneefr			N_lknssbk			N_lkneeis			N_rankfr			N_rankis			N_rankbk			N_lankfr			N_lankbk			N_lankis			D_lasi			D_rasi			D_lpsi			D_fneck			D_bneck			D_fhead			D_rhead			D_lhead			D_rshld			D_relbtop			D_relbext			D_relblow			D_rwrext			D_rwrtop			D_rwrlow			D_lshld			D_lelbext			D_lelblow			D_lelbtop			D_lwrext			D_lwrtop			D_lwrlow			D_rtopleg			D_ltopleg			D_rkneefr			D_rkneebk			D_rkneeis			D_lkneefr			D_lknssbk			D_lkneeis			D_rankfr			D_rankis			D_rankbk			D_lankfr			D_lankbk			D_lankis			D_rpsi			N_lelbext		
		X1	Y1	Z1	X2	Y2	Z2	X3	Y3	Z3	X4	Y4	Z4	X5	Y5	Z5	X6	Y6	Z6	X7	Y7	Z7	X8	Y8	Z8	X9	Y9	Z9	X10	Y10	Z10	X11	Y11	Z11	X12	Y12	Z12	X13	Y13	Z13	X14	Y14	Z14	X15	Y15	Z15	X16	Y16	Z16	X17	Y17	Z17	X18	Y18	Z18	X19	Y19	Z19	X20	Y20	Z20	X21	Y21	Z21	X22	Y22	Z22	X23	Y23	Z23	X24	Y24	Z24	X25	Y25	Z25	X26	Y26	Z26	X27	Y27	Z27	X28	Y28	Z28	X29	Y29	Z29	X30	Y30	Z30	X31	Y31	Z31	X32	Y32	Z32	X33	Y33	Z33	X34	Y34	Z34	X35	Y35	Z35	X36	Y36	Z36	X37	Y37	Z37	X38	Y38	Z38	X39	Y39	Z39	X40	Y40	Z40	X41	Y41	Z41	X42	Y42	Z42	X43	Y43	Z43	X44	Y44	Z44	X45	Y45	Z45	X46	Y46	Z46	X47	Y47	Z47	X48	Y48	Z48	X49	Y49	Z49	X50	Y50	Z50	X51	Y51	Z51	X52	Y52	Z52	X53	Y53	Z53	X54	Y54	Z54	X55	Y55	Z55	X56	Y56	Z56	X57	Y57	Z57	X58	Y58	Z58	X59	Y59	Z59	X60	Y60	Z60	X61	Y61	Z61	X62	Y62	Z62	X63	Y63	Z63	X64	Y64	Z64	X65	Y65	Z65	X66	Y66	Z66	X67	Y67	Z67	X68	Y68	Z68	X69	Y69	Z69	X70	Y70	Z70	X71	Y71	Z71	X72	Y72	Z72	X73	Y73	Z73	X74	Y74	Z74
																																																																																																																																																																																																																															
37	21.55	-532.62592	1237.60406	-66.93412	-511.83609	1252.27341	-297.98346	-242.26719	1226.65115	-341.96014	-270.39053	1220.64629	8.46901	-390.56046	1607.27951	-153.16621	-248.05902	1663.2431	-164.8978	-432.44232	1813.62518	-170.00004	-246.00885	1760.86411	-229.95651	-291.85102	1775.70923	-80.53445	-257.01551	1645.42297	-348.1673	-226.25114	1601.18195	-618.76091	-314.47866	1572.56195	-626.2846	-281.23974	1673.28598	-601.47179	-237.41524	1678.26965	-939.24873	-280.39188	1699.48624	-941.07887	-313.90574	1666.18988	-933.92189	-261.27699	1615.89676	18.76314	-290.40207	1616.41663	292.21424	-252.19709	1538.19016	302.79619	-263.48553	1596.87302	616.04057	-303.42649	1620.38086	624.00723	-331.64009	1574.70779	619.58614	-414.18766	1050.81093	-432.06379	-369.08581	1013.49037	57.36173	-430.30499	562.47467	-251.58596	-324.61903	579.62978	-320.27103	-367.63584	564.33517	-159.17073	-379.17431	539.16203	-92.85968	-252.36288	555.07423	-34.67202	-255.79031	547.46449	-184.42823	-296.74208	140.29765	-268.93869	-298.3284	154.19954	-188.8554	-216.73628	141.88727	-214.22276	-331.2859	192.7314	-115.54771	-257.75023	184.94699	-73.69141	-293.75023	163.94699	-157.69141	-462.66129	1038.29529	1742.36801	-431.6124	1054.8909	1454.83673	-264.3927	1133.66814	1741.01913	-422.66861	1565.02762	1580.1825	-281.7716	1594.10034	1584.3515	-457.30682	1779.36218	1583.51318	-298.3857	1730.5098	1502.88116	-303.80331	1728.2222	1658.69843	-335.22243	1564.91135	1423.28842	-421.48056	1484.90494	1135.51369	-460.7262	1518.51227	1191.77368	-363.81744	1535.37598	1180.43991	-467.57324	1770.88043	1169.05663	-409.20639	1774.06448	1159.80896	-403.01754	1755.23315	1210.99823	-328.11203	1575.52429	1773.32001	-408.78494	1506.3562	2042.73514	-325.84702	1572.7623	2022.73392	-328.64071	1494.67789	2043.27316	-339.37763	1580.24551	2286.29669	-373.34599	1606.47385	2277.75299	-412.30915	1573.58521	2271.99219	-338.96038	1004.56718	1407.18506	-320.01595	1010.47134	1807.08359	-375.90286	455.13401	1450.76141	-277.00527	491.41644	1421.46423	-282.36494	459.02523	1542.2963	-358.73302	448.73394	1770.5542	-246.18191	486.45748	1785.04837	-318.73964	444.14314	1678.43002	-324.64951	130.33178	1417.99957	-295.0382	126.85939	1482.56256	-244.37469	128.24862	1417.50793	-323.50788	135.09587	1792.00638	-250.78899	125.04107	1805.61905	-294.50605	124.18118	1732.58102	-241.24144	1147.83241	1523.05832	-342.8017	1527.52365	303.23147
38	21.567	-532.87231	1237.75391	-67.05617	-512.11639	1252.43469	-298.13894	-242.54503	1226.60194	-342.35832	-270.43003	1220.66101	8.10922	-390.56732	1607.27051	-153.14815	-247.09049	1663.44467	-166.51264	-432.75791	1813.40485	-170.3027	-246.48731	1760.92117	-230.49807	-292.24163	1775.69809	-81.01019	-257.01834	1645.43228	-348.57574	-226.06476	1600.98053	-619.25953	-314.34032	1572.35184	-626.51299	-281.12371	1673.10196	-601.92566	-237.31493	1677.97913	-939.80377	-280.24094	1699.20624	-941.58188	-313.8718	1666.01044	-934.33388	-261.19598	1615.90912	18.51865	-290.30737	1616.47614	292.03287	-252.16284	1538.21991	302.45255	-263.61919	1596.80817	615.8416	-303.59552	1620.29892	623.65673	-331.8428	1574.63974	619.23897	-414.79439	1050.82321	-432.41837	-369.18266	1013.52371	57.12694	-430.4768	562.45293	-251.75756	-324.76715	579.61597	-320.43465	-367.86785	564.38519	-159.32913	-379.2767	539.19109	-92.97281	-252.48682	555.14732	-34.8317	-255.94879	547.46777	-184.54578	-296.79367	140.29398	-268.98579	-298.3717	154.21597	-188.90003	-216.77742	141.91073	-214.2944	-331.34865	192.76459	-115.62005	-257.83184	184.99773	-73.69078	-293.83184	163.99773	-157.69078	-462.69886	1038.27759	1742.509	-431.81305	1054.97803	1454.9884	-264.31656	1133.70651	1740.96054	-422.55234	1565.17532	1580.2861	-281.63807	1594.15421	1584.47388	-457.01736	1779.45694	1583.68759	-298.18008	1730.44083	1502.68631	-303.5763	1728.21213	1658.70728	-334.49448	1565.54596	1424.6611	-422.37694	1488.34076	1136.77902	-460.67955	1522.37274	1193.15674	-363.43723	1537.17163	1181.29532	-462.81738	1775.00443	1172.63504	-404.25278	1777.27448	1163.24242	-397.79179	1757.79022	1213.72116	-327.23686	1575.93063	1773.13675	-407.34222	1506.8428	2042.90283	-324.65378	1573.34564	2022.58011	-327.01271	1495.45898	2043.33954	-337.66029	1581.64383	2286.16165	-371.77326	1607.74399	2277.69943	-410.53883	1574.81766	2271.96732	-339.04903	1004.62219	1407.25494	-319.82349	1010.61295	1807.00699	-375.94429	455.1564	1450.80322	-276.97613	491.40961	1421.53519	-282.37844	459.03072	1542.35229	-358.61145	448.72795	1770.57571	-246.04313	486.4048	1785.08896	-318.58265	444.11423	1678.43201	-324.64901	130.33302	1417.99408	-295.0552	126.87403	1482.5563	-244.35825	128.23614	1417.55096	-323.45707	135.12281	1792.07016	-250.71171	125.0659	1805.65155	-294.50262	124.17894	1732.58026	-240.86313	1148.03055	1522.22366	-342.82875	1527.52197	302.87729
39	21.583	-533.08315	1237.94914	-67.24759	-512.39864	1252.58324	-298.30053	-242.72818	1226.59019	-342.75795	-270.47068	1220.7074	7.75221	-390.5706	1607.26563	-153.13956	-247.83991	1663.56567	-165.46787	-433.10459	1813.14133	-170.6967	-246.43381	1761.07925	-230.67398	-292.54593	1775.7283	-81.24461	-257.08149	1645.47287	-348.9772	-226.04755	1600.80826	-619.57989	-314.20372	1572.0752	-627.02759	-281.47322	1672.70538	-602.37835	-237.31104	1677.72308	-940.25658	-280.30163	1698.85818	-942.07451	-313.84043	1665.69946	-934.67789	-261.07241	1615.9256	18.319	-290.47678	1616.47781	291.72239	-252.18664	1538.22952	302.1315	-263.74454	1596.6835	615.51674	-303.68807	1620.21744	623.38154	-332.00531	1574.62601	618.95786	-415.25551	1050.84061	-432.57137	-369.2445	1013.58597	56.81009	-430.61611	562.41772	-251.92528	-324.94644	579.62154	-320.62428	-368.06358	564.42245	-159.46947	-379.39636	539.22142	-93.12544	-252.63321	555.18433	-34.98634	-256.09709	547.48241	-184.68763	-296.89398	140.38829	-269.10992	-298.46052	154.23682	-188.99014	-216.79935	141.95025	-214.40096	-331.42502	192.80426	-115.71916	-257.91708	185.05247	-73.73783	-293.91708	164.05247	-157.73783	-462.71339	1038.22388	1742.58774	-431.93722	1055.05257	1454.96841	-264.28339	1133.71117	1740.98267	-422.34417	1565.26443	1580.41367	-281.36278	1594.14398	1584.51767	-456.70994	1779.44733	1583.78799	-297.92217	1730.45135	1502.89673	-303.33818	1728.23792	1658.74207	-333.98949	1565.94513	1425.82428	-422.96391	1491.10107	1137.65327	-460.37594	1525.63766	1193.9666	-363.0114	1538.77289	1182.32704	-458.61599	1778.31314	1176.02158	-400.22514	1779.67072	1166.00952	-393.49842	1759.37866	1216.37032	-326.56418	1576.00662	1773.12546	-405.96066	1506.94717	2042.95929	-323.16925	1573.5849	2022.53464	-325.75871	1495.78751	2043.67523	-336.7831	1581.9931	2286.32004	-370.65315	1608.23456	2277.68723	-409.65683	1575.52032	2271.81915	-339.07173	1004.67659	1407.27005	-319.75552	1010.58411	1806.96625	-375.75287	455.18211	1450.70709	-276.88831	491.42776	1421.56631	-282.32084	459.04667	1542.46735	-358.52962	448.70327	1770.55023	-245.91671	486.38493	1785.09674	-318.45728	444.09752	1678.40515	-324.61334	130.34559	1418.02017	-295.0518	126.86633	1482.55539	-244.3264	128.25028	1417.52625	-323.42762	135.12388	1792.07336	-250.6916	125.07396	1805.69214	-294.47691	124.16543	1732.60727	-241.07874	1148.15849	1522.20032	-342.91977	1527.53357	302.617
40	21.6	-533.24078	1238.11531	-67.46132	-512.691	1252.73018	-298.52148	-243.02042	1226.58989	-343.19492	-270.51903	1220.74471	7.41835	-390.74368	1607.33887	-152.93685	-248.1241	1663.65784	-165.11084	-433.48351	1812.91275	-171.01709	-246.57337	1761.19812	-230.91188	-292.8529	1775.84961	-81.57903	-257.16511	1645.45013	-349.41475	-226.02892	1600.69199	-620.01389	-314.08878	1571.77856	-627.46204	-281.66143	1672.50778	-602.85698	-237.33809	1677.38403	-940.67902	-280.28399	1698.52386	-942.55501	-313.84678	1665.24704	-935.18051	-261.06392	1615.93506	18.0745	-290.51638	1616.43097	291.37501	-252.46082	1538.1781	301.94212	-263.95035	1596.49231	615.06519	-303.75084	1620.07996	623.03795	-332.19414	1574.65103	618.63899	-415.53295	1050.82428	-432.60048	-369.16924	1013.5463	56.48378	-430.76519	562.39834	-252.17041	-325.09071	579.63154	-320.8287	-368.20236	564.41433	-159.65515	-379.54567	539.27895	-93.29366	-252.77487	555.22186	-35.16368	-256.29725	547.50675	-184.85823	-296.95272	140.40261	-269.20187	-298.52646	154.24808	-189.11228	-216.92743	141.97721	-214.433	-331.52222	192.83243	-115.81628	-258.03919	185.14223	-73.90333	-294.03919	164.14223	-157.90333	-462.8035	1038.17863	1742.59888	-432.04041	1055.09804	1454.94095	-264.3059	1133.67523	1741.02341	-422.12608	1565.28656	1580.55695	-280.88835	1594.08478	1584.70657	-456.37367	1779.32022	1583.89816	-297.63435	1730.4689	1503.02765	-302.93293	1728.36243	1658.76648	-333.43845	1566.31226	1426.71783	-423.35049	1493.35587	1138.30032	-460.07469	1528.0159	1195.25581	-362.62272	1539.91302	1183.02353	-455.11414	1780.72861	1179.09149	-396.93718	1781.48926	1168.25111	-390.04017	1760.97076	1218.61206	-325.78655	1575.91614	1773.18481	-405.12344	1506.94763	2042.89948	-321.98933	1573.54736	2022.67548	-324.74602	1495.70038	2043.53409	-336.3055	1581.93909	2286.60065	-370.36697	1608.12714	2277.69165	-409.07078	1575.32837	2271.88339	-339.03069	1004.70734	1407.2699	-319.79723	1010.50316	1806.98303	-375.68058	455.19581	1450.7048	-276.7811	491.42673	1421.63803	-282.25655	459.05003	1542.43225	-358.41774	448.63537	1770.56351	-245.79742	486.35815	1785.1825	-318.3341	444.07616	1678.41492	-324.5755	130.35789	1418.00507	-295.02535	126.90433	1482.5824	-244.33319	128.23368	1417.53922	-323.41869	135.12588	1792.07977	-250.68821	125.01048	1805.69122	-294.47138	124.16729	1732.60239	-240.99026	1148.1987	1521.96915	-343.08929	1527.62299	302.31527
